<svg xmlns="http://www.w3.org/2000/svg" width="64.876" height="71.712" viewBox="607.562 556.288 64.876 71.712"><g data-name="Grupo 4368"><path d="m672.124 566.584-9.98-9.98a1.07 1.07 0 0 0-1.519 0L640 577.228l-20.624-20.625a1.07 1.07 0 0 0-1.52 0l-9.98 9.979a1.074 1.074 0 0 0 0 1.519l31.317 31.318c.201.202.474.315.76.315l.046-.001h.047c.275 0 .55-.104.76-.314l31.318-31.315a1.075 1.075 0 0 0 0-1.52Z" fill="#597af8" fill-rule="evenodd" data-name="Trazado 17829"/><path d="m672.124 594.85-9.98-9.98a1.072 1.072 0 0 0-1.519 0L640 605.495l-20.624-20.626a1.07 1.07 0 0 0-1.52 0l-9.98 9.979a1.076 1.076 0 0 0 0 1.519l31.317 31.318c.201.202.474.315.76.315l.046-.001a1.07 1.07 0 0 0 .807-.313l31.318-31.316a1.077 1.077 0 0 0 0-1.52Z" fill="#597af8" fill-rule="evenodd" data-name="Trazado 17830"/></g></svg>