<svg xmlns="http://www.w3.org/2000/svg" width="14.041" height="14.041" viewBox="519.448 1139.448 14.041 14.041"><g data-name="Grupo 4332"><path d="M523.999 1145.08a.774.774 0 0 0-1.138 1.046l2.563 2.784a.777.777 0 0 0 .55.25h.019a.779.779 0 0 0 .546-.226l6.485-6.467a.769.769 0 0 0 .001-1.094.769.769 0 0 0-.546-.227h-.001c-.207 0-.4.08-.546.226l-5.915 5.9-2.018-2.193Z" fill="#00a7e1" fill-rule="evenodd" data-name="Trazado 17827"/><path d="M532.715 1145.695a.774.774 0 0 0-.773.774 5.48 5.48 0 0 1-5.473 5.473 5.48 5.48 0 0 1-5.474-5.473 5.48 5.48 0 0 1 5.474-5.474.774.774 0 0 0 0-1.547 7.029 7.029 0 0 0-7.02 7.02c0 3.871 3.149 7.02 7.02 7.02 3.87 0 7.02-3.149 7.02-7.02a.774.774 0 0 0-.774-.773Z" fill="#161848" fill-rule="evenodd" data-name="Trazado 17828"/></g></svg>